<svg width="110" height="42" viewBox="0 0 110 42" fill="none" xmlns="http://www.w3.org/2000/svg">
<path d="M39.6773 1.15878C39.8829 1.10229 40.1071 1.04734 40.1756 1.03665C40.2441 1.02596 49.5494 1.01986 81.408 1.03054L81.8232 1.16488C82.0516 1.23918 82.3788 1.36131 82.5498 1.43662C82.7213 1.51244 83.039 1.68087 83.2557 1.81165C83.4725 1.94243 83.8088 2.17651 84.0031 2.33172C84.1975 2.48692 84.4869 2.7495 84.6468 2.91539C84.8066 3.08128 85.052 3.36573 85.1919 3.5474C85.3717 3.77995 85.4863 3.98909 85.5818 4.25879C85.6562 4.46896 87.9956 10.9377 90.7805 18.6343L91.085 19.4757C93.7765 26.9129 96.5286 34.5176 97.3001 36.6482C98.1002 38.8592 98.7808 40.7425 98.8684 40.999H49.904C8.15926 40.999 0.948373 40.9888 1.00028 40.9282C1.0335 40.8896 2.21939 40.453 6.20976 39.0571L8.84647 37.3107C10.2965 36.3505 13.5108 34.2214 20.4937 29.5948L25.2086 23.8247L26.6129 21.4839C27.3857 20.1965 28.4574 18.4104 28.9955 17.5148C29.9543 15.9185 30.0215 15.7892 32.4195 10.9504C33.7653 8.23559 35.0861 5.56811 35.3556 5.02209C35.6247 4.47659 35.9178 3.90971 36.0067 3.76265C36.096 3.61559 36.3393 3.3179 36.5473 3.10112C36.7558 2.88434 37.0875 2.57394 37.2843 2.41161C37.4816 2.24877 37.8669 1.98263 38.141 1.81929C38.415 1.65645 38.7887 1.4641 38.9714 1.39184C39.1541 1.32009 39.4718 1.21526 39.6773 1.15878Z" fill="url(#paint0_linear_70_36)"/>
<path d="M82.4406 1.24325C82.2094 1.15267 82.0038 1.06057 81.9839 1.03868C81.964 1.0168 86.0494 0.999502 91.062 1.00001C99.1059 1.00103 100.22 1.01019 100.55 1.0799C100.756 1.12316 101.055 1.20508 101.214 1.26157C101.374 1.31856 101.636 1.42339 101.796 1.49514C101.956 1.5674 102.264 1.7338 102.481 1.86559C102.698 1.99739 102.987 2.1933 103.124 2.30017C103.262 2.40754 103.474 2.58869 103.596 2.70268C103.748 2.84465 103.888 3.04667 104.038 3.34283C104.16 3.58098 104.336 3.98146 104.43 4.23335C104.525 4.48524 104.66 4.92032 104.73 5.2002C104.8 5.48007 104.893 5.97266 104.937 6.29426C104.981 6.61637 105.4 10.154 105.868 14.1563C106.337 18.1585 107.233 25.8297 107.86 31.2033C108.487 36.5769 109 40.9791 109 40.9863C109 40.9934 106.753 40.9995 99.0137 41L96.8059 34.9058C95.5918 31.5539 93.4924 25.7549 92.1408 22.0182C90.7888 18.2821 88.9494 13.1986 88.0529 10.7214C87.1564 8.24475 86.2209 5.65716 85.9742 4.97121C85.5989 3.92956 85.4938 3.68377 85.3352 3.4787C85.2306 3.34334 84.9955 3.07721 84.8128 2.88689C84.6301 2.69708 84.322 2.40957 84.1277 2.24877C83.9334 2.08797 83.5692 1.83303 83.318 1.68189C83.0668 1.53127 82.6719 1.33383 82.4406 1.24325Z" fill="url(#paint1_linear_70_36)"/>
<path d="M56.4734 16.5434C56.6673 16.4762 56.9571 16.3993 57.117 16.3729C57.2768 16.3464 57.6601 16.3337 57.9682 16.3449C58.3843 16.3596 58.6305 16.3968 58.9232 16.4889C59.14 16.5571 59.4203 16.6685 59.5461 16.7367C59.6719 16.8044 59.8866 16.9525 60.0236 17.0654C60.1606 17.1784 60.3637 17.3942 60.4745 17.5453C60.5854 17.6964 60.7436 17.9692 60.8258 18.1509C60.908 18.333 61.0264 18.6648 61.0887 18.8887C61.1514 19.1126 61.1962 19.307 61.1887 19.3213C61.1817 19.3355 61.1219 19.363 61.0563 19.3828C60.9907 19.4027 60.7752 19.4714 60.2171 19.652L60.1008 19.2704C60.0369 19.0607 59.9173 18.763 59.8355 18.6088C59.7541 18.4547 59.6038 18.245 59.5025 18.1422C59.4008 18.0394 59.1965 17.8852 59.0478 17.7992C58.8992 17.7132 58.6376 17.6048 58.4665 17.559C58.229 17.4949 58.0268 17.4812 57.6153 17.5015C57.188 17.5219 57.0061 17.555 56.7433 17.6598C56.5606 17.7326 56.2919 17.8786 56.1462 17.984C56.0004 18.0898 55.77 18.3254 55.6338 18.5071C55.4756 18.7182 55.3203 19.0032 55.2028 19.2958C55.1019 19.5477 54.9785 19.937 54.9287 20.1609C54.8511 20.51 54.8378 20.7064 54.8357 21.5348C54.8336 22.3124 54.8482 22.5765 54.91 22.8833C54.9524 23.0935 55.0716 23.4828 55.1749 23.7484C55.329 24.1443 55.4183 24.2985 55.6691 24.6007C55.8983 24.8771 56.0611 25.0201 56.3177 25.1712C56.5062 25.2821 56.8193 25.419 57.0132 25.476C57.2619 25.5493 57.5069 25.5798 57.8436 25.5798C58.1721 25.5798 58.425 25.5493 58.6533 25.4816C58.836 25.4277 59.1446 25.3025 59.3385 25.2027C59.5324 25.103 59.8127 24.9244 60.2312 24.588L60.252 22.6798L57.8229 22.6543V21.4839L61.3316 21.4585L61.3108 25.2475L60.9786 25.5416C60.7959 25.703 60.4409 25.9604 60.1897 26.1131C59.9385 26.2663 59.5926 26.4464 59.4215 26.5141C59.2504 26.5813 58.9324 26.6739 58.7156 26.7197C58.4989 26.765 58.1156 26.8021 57.8644 26.8016C57.6132 26.8016 57.2395 26.7655 57.0339 26.7217C56.8284 26.6779 56.5199 26.5843 56.3488 26.5141C56.1777 26.4439 55.8784 26.2861 55.6844 26.164C55.4905 26.0419 55.2007 25.8083 55.0408 25.6449C54.881 25.4816 54.6509 25.1885 54.5297 24.9936C54.4084 24.7987 54.2237 24.4211 54.119 24.1555C54.0144 23.8899 53.884 23.4543 53.8296 23.1886C53.7748 22.923 53.7138 22.465 53.6942 22.1709C53.6743 21.8768 53.6735 21.3964 53.6917 21.1023C53.7104 20.8082 53.7628 20.3736 53.8084 20.1354C53.8541 19.8978 53.9488 19.5197 54.019 19.2958C54.0891 19.0719 54.2311 18.7111 54.3341 18.4943C54.4375 18.2776 54.648 17.9371 54.8021 17.7382C54.9561 17.5392 55.2036 17.2776 55.3523 17.1565C55.5009 17.0359 55.7343 16.8756 55.8713 16.8013C56.0083 16.7271 56.2795 16.6105 56.4734 16.5434Z" fill="url(#paint2_linear_70_36)"/>
<path d="M46.2101 21.5944C46.2064 18.8139 46.2189 16.524 46.238 16.5057C46.2571 16.4869 46.9563 16.4721 47.7917 16.4731C48.6272 16.4741 49.6001 16.496 49.9543 16.5225C50.377 16.5535 50.705 16.607 50.9093 16.6772C51.0804 16.7362 51.3308 16.8573 51.4657 16.9459C51.6002 17.0349 51.8062 17.2334 51.9233 17.3876C52.0404 17.5417 52.1961 17.8165 52.2692 17.9982C52.3427 18.1804 52.4307 18.4664 52.4656 18.6343C52.5017 18.8078 52.5291 19.1594 52.5291 19.4485C52.5291 19.736 52.5017 20.0902 52.466 20.2627C52.4311 20.4306 52.3389 20.7283 52.2605 20.9242C52.1824 21.1201 52.0271 21.4061 51.9154 21.5603C51.7863 21.7384 51.6077 21.9083 51.425 22.0274C51.2668 22.1302 50.9973 22.2615 50.8262 22.3195C50.6548 22.377 50.3371 22.4467 50.1204 22.4747C49.9036 22.5027 49.1886 22.5256 47.3383 22.5271V26.6489H46.2172L46.2101 21.5944Z" fill="url(#paint3_linear_70_36)"/>
<path d="M68.131 16.7474C68.251 16.6797 68.4565 16.5917 68.5877 16.552C68.7189 16.5123 69.0225 16.4787 69.2625 16.4767C69.5141 16.4747 69.8081 16.5052 69.958 16.5484C70.1008 16.5902 70.3342 16.6965 70.477 16.7846C70.6199 16.8726 70.8449 17.0731 70.977 17.2298C71.1169 17.3957 71.2759 17.6532 71.3573 17.8455C71.4341 18.0277 71.5267 18.302 71.5633 18.4562C71.6002 18.6104 71.6301 18.7875 71.6297 18.8506C71.6293 18.9172 71.599 18.9737 71.5566 18.9864C71.5168 18.9981 71.2971 19.0226 70.6535 19.0739L70.5617 18.7269C70.5115 18.5361 70.4135 18.2827 70.3437 18.1636C70.2744 18.0445 70.1382 17.8781 70.041 17.7931C69.9439 17.7081 69.7711 17.6018 69.6569 17.557C69.5124 17.5 69.3551 17.4822 69.1379 17.4985C68.8842 17.5173 68.7771 17.554 68.5603 17.6959C68.4009 17.8008 68.2123 17.9834 68.0903 18.1509C67.9777 18.305 67.8146 18.6139 67.7269 18.8378C67.6393 19.0617 67.5388 19.394 67.5031 19.5757C67.4678 19.7579 67.4193 20.1013 67.3956 20.339C67.3719 20.5771 67.3524 20.9089 67.3532 21.3822L67.4649 21.2041C67.526 21.1064 67.6613 20.9283 67.7656 20.8092C67.8694 20.6896 68.0757 20.5145 68.2244 20.4194C68.373 20.3247 68.5969 20.2102 68.7227 20.1655C68.8618 20.1156 69.1051 20.0835 69.3455 20.084C69.5693 20.084 69.8475 20.1186 69.9891 20.1639C70.1261 20.2077 70.3504 20.3166 70.4874 20.4056C70.6244 20.4947 70.8686 20.7278 71.0301 20.9237C71.2522 21.1939 71.3652 21.3852 71.496 21.7129C71.6023 21.9796 71.6953 22.3114 71.7377 22.578C71.7883 22.896 71.8004 23.152 71.7825 23.5448C71.7692 23.839 71.7281 24.2166 71.6911 24.3845C71.6546 24.5524 71.5462 24.8847 71.4511 25.1223C71.3237 25.4414 71.2016 25.65 70.9865 25.9172C70.7839 26.1696 70.6032 26.336 70.394 26.4642C70.2283 26.566 69.9762 26.683 69.8334 26.7248C69.6906 26.766 69.4057 26.8006 69.2002 26.8016C68.9552 26.8021 68.7123 26.7665 68.4943 26.6978C68.3116 26.6403 68.0317 26.5085 67.8727 26.4047C67.6987 26.2917 67.4749 26.0831 67.3121 25.8821C67.1631 25.6984 66.9704 25.4007 66.8844 25.2205C66.7981 25.0404 66.6735 24.6873 66.6075 24.4354C66.5411 24.1835 66.4563 23.7255 66.419 23.4176C66.3729 23.0426 66.3509 22.5307 66.3513 21.8656C66.3517 21.2758 66.3774 20.6362 66.4152 20.2881C66.4497 19.9665 66.5261 19.4968 66.5846 19.2449C66.6428 18.993 66.7624 18.6038 66.8496 18.3799C66.9368 18.1559 67.0925 17.8354 67.195 17.6674C67.298 17.4995 67.5015 17.2517 67.6472 17.1163C67.7934 16.9815 68.011 16.8156 68.131 16.7474Z" fill="url(#paint4_linear_70_36)"/>
<path d="M73.394 19.2195C73.6112 17.8058 73.7889 16.6441 73.7889 16.637C73.7885 16.6299 74.7136 16.6243 77.8993 16.6243V17.8455L74.5982 17.845L74.3843 19.1559C74.2668 19.8764 74.1734 20.4723 74.1767 20.4794C74.18 20.4866 74.3324 20.4021 74.5151 20.2912C74.6978 20.1807 74.969 20.055 75.1172 20.0118C75.2655 19.9685 75.5457 19.9334 75.7401 19.9334C75.9344 19.9334 76.2147 19.9685 76.3629 20.0118C76.5111 20.0545 76.7545 20.1629 76.9027 20.252C77.0837 20.3609 77.2847 20.5486 77.5123 20.8219C77.7934 21.1588 77.8806 21.3043 78.0168 21.662C78.1077 21.9002 78.2049 22.232 78.2335 22.3999C78.2622 22.5678 78.2842 22.9454 78.2829 23.2395C78.2817 23.5408 78.2518 23.924 78.2144 24.1173C78.1783 24.3061 78.0911 24.6155 78.0209 24.8043C77.9507 24.9931 77.8133 25.2852 77.7153 25.4531C77.6169 25.621 77.4595 25.8444 77.3653 25.9492C77.2706 26.0541 77.0908 26.2205 76.965 26.3182C76.8392 26.4164 76.5917 26.5563 76.4148 26.6301C76.1727 26.7304 75.9797 26.77 75.6363 26.7889C75.3149 26.8062 75.0749 26.7894 74.8266 26.7324C74.6106 26.6825 74.3528 26.5772 74.1622 26.4607C73.9907 26.3563 73.7665 26.1803 73.6639 26.0693C73.5613 25.9589 73.4094 25.7635 73.3267 25.6353C73.2441 25.507 73.1386 25.3106 73.0926 25.1987C73.046 25.0867 72.968 24.8348 72.9186 24.6389C72.8692 24.443 72.8343 24.214 72.8542 23.9774L73.8665 23.8756L73.9313 24.1937C73.967 24.3687 74.0426 24.6262 74.0999 24.7661C74.1568 24.9061 74.288 25.1239 74.3906 25.2496C74.4931 25.3752 74.685 25.5416 74.8162 25.6185C75.0279 25.7426 75.1023 25.7584 75.4702 25.7579C75.826 25.7574 75.9182 25.7386 76.1138 25.6282C76.2396 25.5574 76.4227 25.42 76.5215 25.3233C76.6203 25.2267 76.7648 25.0333 76.8433 24.8933C76.9214 24.7534 77.0244 24.5132 77.0717 24.359C77.119 24.2048 77.1755 23.9077 77.1967 23.6975C77.2224 23.4477 77.2208 23.1749 77.1925 22.9088C77.1635 22.635 77.1033 22.3846 77.0098 22.1455C76.9185 21.9119 76.801 21.7124 76.6685 21.5659C76.5577 21.4432 76.3733 21.2896 76.2591 21.2249C76.1449 21.1598 75.9111 21.0799 75.7401 21.0463C75.505 21.0005 75.3622 20.9995 75.1587 21.0427C75.0105 21.0743 74.7767 21.1679 74.6397 21.2509C74.5002 21.3354 74.2851 21.5318 73.911 21.9928L73.4546 21.9165C73.2038 21.8747 72.9983 21.8289 72.9983 21.8147C72.9987 21.8005 73.1764 20.6331 73.394 19.2195Z" fill="url(#paint5_linear_70_36)"/>
<path d="M62.4112 23.5957V22.3236H65.5254V23.5957H62.4112Z" fill="url(#paint6_linear_70_36)"/>
<path d="M47.3383 21.3058V17.6929L48.6774 17.6934C49.4141 17.6934 50.1332 17.7163 50.2761 17.7443C50.4189 17.7718 50.6103 17.8405 50.7017 17.8964C50.793 17.9524 50.9367 18.0842 51.021 18.189C51.1053 18.2939 51.2207 18.5055 51.278 18.6597C51.3548 18.8653 51.3872 19.0541 51.4009 19.3721C51.4142 19.6861 51.4001 19.8815 51.3494 20.0846C51.3112 20.2387 51.2095 20.4789 51.1236 20.6189C51.0202 20.7873 50.8914 20.9206 50.7411 21.0137C50.6166 21.0911 50.384 21.1883 50.2242 21.2295C50.0049 21.2855 49.615 21.3043 47.3383 21.3058Z" fill="url(#paint7_linear_70_36)"/>
<path d="M68.3801 21.3908C68.4544 21.344 68.6131 21.2717 68.7331 21.2295C68.8784 21.179 69.0549 21.1617 69.2625 21.1776C69.4921 21.1954 69.6395 21.2407 69.823 21.3491C69.9601 21.4305 70.1544 21.5969 70.2545 21.7195C70.3549 21.8417 70.4899 22.0793 70.5547 22.2472C70.6194 22.4152 70.6917 22.6783 70.7154 22.8324C70.739 22.9866 70.7577 23.2726 70.7573 23.4685C70.7565 23.6644 70.7274 23.9733 70.6921 24.1555C70.6568 24.3377 70.5684 24.6216 70.4953 24.7865C70.4226 24.9519 70.2781 25.1809 70.1743 25.2954C70.0705 25.4104 69.8928 25.561 69.7798 25.6302C69.6067 25.736 69.5141 25.7564 69.2002 25.7574C68.863 25.7584 68.7991 25.7421 68.5462 25.593C68.3868 25.4989 68.1808 25.3218 68.0687 25.1829C67.9603 25.048 67.8212 24.8135 67.7602 24.6613C67.6991 24.5092 67.6194 24.2471 67.5837 24.0792C67.5476 23.9112 67.5181 23.5789 67.5181 23.3413C67.5177 23.0909 67.5459 22.7907 67.5849 22.6289C67.6219 22.4747 67.6954 22.2574 67.7481 22.1455C67.8009 22.0335 67.9346 21.8371 68.0446 21.7089C68.1551 21.5806 68.3058 21.4376 68.3801 21.3908Z" fill="url(#paint8_linear_70_36)"/>
<path d="M39.6773 1.15878C39.8829 1.10229 40.1071 1.04734 40.1756 1.03665C40.2441 1.02596 49.5494 1.01986 81.408 1.03054L81.8232 1.16488C82.0516 1.23918 82.3788 1.36131 82.5498 1.43662C82.7213 1.51244 83.039 1.68087 83.2557 1.81165C83.4725 1.94243 83.8088 2.17651 84.0031 2.33172C84.1975 2.48692 84.4869 2.7495 84.6468 2.91539C84.8066 3.08128 85.052 3.36573 85.1919 3.5474C85.3717 3.77995 85.4863 3.98909 85.5818 4.25879C85.6562 4.46896 87.9956 10.9377 90.7805 18.6343L91.085 19.4757C93.7765 26.9129 96.5286 34.5176 97.3001 36.6482C98.1002 38.8592 98.7808 40.7425 98.8684 40.999H49.904C8.15926 40.999 0.948373 40.9888 1.00028 40.9282C1.0335 40.8896 2.21939 40.453 6.20976 39.0571L8.84647 37.3107C10.2965 36.3505 13.5108 34.2214 20.4937 29.5948L25.2086 23.8247L26.6129 21.4839C27.3857 20.1965 28.4574 18.4104 28.9955 17.5148C29.9543 15.9185 30.0215 15.7892 32.4195 10.9504C33.7653 8.23559 35.0861 5.56811 35.3556 5.02209C35.6247 4.47659 35.9178 3.90971 36.0067 3.76265C36.096 3.61559 36.3393 3.3179 36.5473 3.10112C36.7558 2.88434 37.0875 2.57394 37.2843 2.41161C37.4816 2.24877 37.8669 1.98263 38.141 1.81929C38.415 1.65645 38.7887 1.4641 38.9714 1.39184C39.1541 1.32009 39.4718 1.21526 39.6773 1.15878Z" stroke="white"/>
<path d="M82.4406 1.24325C82.2094 1.15267 82.0038 1.06057 81.9839 1.03868C81.964 1.0168 86.0494 0.999502 91.062 1.00001C99.1059 1.00103 100.22 1.01019 100.55 1.0799C100.756 1.12316 101.055 1.20508 101.214 1.26157C101.374 1.31856 101.636 1.42339 101.796 1.49514C101.956 1.5674 102.264 1.7338 102.481 1.86559C102.698 1.99739 102.987 2.1933 103.124 2.30017C103.262 2.40754 103.474 2.58869 103.596 2.70268C103.748 2.84465 103.888 3.04667 104.038 3.34283C104.16 3.58098 104.336 3.98146 104.43 4.23335C104.525 4.48524 104.66 4.92032 104.73 5.2002C104.8 5.48007 104.893 5.97266 104.937 6.29426C104.981 6.61637 105.4 10.154 105.868 14.1563C106.337 18.1585 107.233 25.8297 107.86 31.2033C108.487 36.5769 109 40.9791 109 40.9863C109 40.9934 106.753 40.9995 99.0137 41L96.8059 34.9058C95.5918 31.5539 93.4924 25.7549 92.1408 22.0182C90.7888 18.2821 88.9494 13.1986 88.0529 10.7214C87.1564 8.24475 86.2209 5.65716 85.9742 4.97121C85.5989 3.92956 85.4938 3.68377 85.3352 3.4787C85.2306 3.34334 84.9955 3.07721 84.8128 2.88689C84.6301 2.69708 84.322 2.40957 84.1277 2.24877C83.9334 2.08797 83.5692 1.83303 83.318 1.68189C83.0668 1.53127 82.6719 1.33383 82.4406 1.24325Z" stroke="white"/>
<path d="M56.4734 16.5434C56.6673 16.4762 56.9571 16.3993 57.117 16.3729C57.2768 16.3464 57.6601 16.3337 57.9682 16.3449C58.3843 16.3596 58.6305 16.3968 58.9232 16.4889C59.14 16.5571 59.4203 16.6685 59.5461 16.7367C59.6719 16.8044 59.8866 16.9525 60.0236 17.0654C60.1606 17.1784 60.3637 17.3942 60.4745 17.5453C60.5854 17.6964 60.7436 17.9692 60.8258 18.1509C60.908 18.333 61.0264 18.6648 61.0887 18.8887C61.1514 19.1126 61.1962 19.307 61.1887 19.3213C61.1817 19.3355 61.1219 19.363 61.0563 19.3828C60.9907 19.4027 60.7752 19.4714 60.2171 19.652L60.1008 19.2704C60.0369 19.0607 59.9173 18.763 59.8355 18.6088C59.7541 18.4547 59.6038 18.245 59.5025 18.1422C59.4008 18.0394 59.1965 17.8852 59.0478 17.7992C58.8992 17.7132 58.6376 17.6048 58.4665 17.559C58.229 17.4949 58.0268 17.4812 57.6153 17.5015C57.188 17.5219 57.0061 17.555 56.7433 17.6598C56.5606 17.7326 56.2919 17.8786 56.1462 17.984C56.0004 18.0898 55.77 18.3254 55.6338 18.5071C55.4756 18.7182 55.3203 19.0032 55.2028 19.2958C55.1019 19.5477 54.9785 19.937 54.9287 20.1609C54.8511 20.51 54.8378 20.7064 54.8357 21.5348C54.8336 22.3124 54.8482 22.5765 54.91 22.8833C54.9524 23.0935 55.0716 23.4828 55.1749 23.7484C55.329 24.1443 55.4183 24.2985 55.6691 24.6007C55.8983 24.8771 56.0611 25.0201 56.3177 25.1712C56.5062 25.2821 56.8193 25.419 57.0132 25.476C57.2619 25.5493 57.5069 25.5798 57.8436 25.5798C58.1721 25.5798 58.425 25.5493 58.6533 25.4816C58.836 25.4277 59.1446 25.3025 59.3385 25.2027C59.5324 25.103 59.8127 24.9244 60.2312 24.588L60.252 22.6798L57.8229 22.6543V21.4839L61.3316 21.4585L61.3108 25.2475L60.9786 25.5416C60.7959 25.703 60.4409 25.9604 60.1897 26.1131C59.9385 26.2663 59.5926 26.4464 59.4215 26.5141C59.2504 26.5813 58.9324 26.6739 58.7156 26.7197C58.4989 26.765 58.1156 26.8021 57.8644 26.8016C57.6132 26.8016 57.2395 26.7655 57.0339 26.7217C56.8284 26.6779 56.5199 26.5843 56.3488 26.5141C56.1777 26.4439 55.8784 26.2861 55.6844 26.164C55.4905 26.0419 55.2007 25.8083 55.0408 25.6449C54.881 25.4816 54.6509 25.1885 54.5297 24.9936C54.4084 24.7987 54.2237 24.4211 54.119 24.1555C54.0144 23.8899 53.884 23.4543 53.8296 23.1886C53.7748 22.923 53.7138 22.465 53.6942 22.1709C53.6743 21.8768 53.6735 21.3964 53.6917 21.1023C53.7104 20.8082 53.7628 20.3736 53.8084 20.1354C53.8541 19.8978 53.9488 19.5197 54.019 19.2958C54.0891 19.0719 54.2311 18.7111 54.3341 18.4943C54.4375 18.2776 54.648 17.9371 54.8021 17.7382C54.9561 17.5392 55.2036 17.2776 55.3523 17.1565C55.5009 17.0359 55.7343 16.8756 55.8713 16.8013C56.0083 16.7271 56.2795 16.6105 56.4734 16.5434Z" stroke="white"/>
<path d="M46.2101 21.5944C46.2064 18.8139 46.2189 16.524 46.238 16.5057C46.2571 16.4869 46.9563 16.4721 47.7917 16.4731C48.6272 16.4741 49.6001 16.496 49.9543 16.5225C50.377 16.5535 50.705 16.607 50.9093 16.6772C51.0804 16.7362 51.3308 16.8573 51.4657 16.9459C51.6002 17.0349 51.8062 17.2334 51.9233 17.3876C52.0404 17.5417 52.1961 17.8165 52.2692 17.9982C52.3427 18.1804 52.4307 18.4664 52.4656 18.6343C52.5017 18.8078 52.5291 19.1594 52.5291 19.4485C52.5291 19.736 52.5017 20.0902 52.466 20.2627C52.4311 20.4306 52.3389 20.7283 52.2605 20.9242C52.1824 21.1201 52.0271 21.4061 51.9154 21.5603C51.7863 21.7384 51.6077 21.9083 51.425 22.0274C51.2668 22.1302 50.9973 22.2615 50.8262 22.3195C50.6548 22.377 50.3371 22.4467 50.1204 22.4747C49.9036 22.5027 49.1886 22.5256 47.3383 22.5271V26.6489H46.2172L46.2101 21.5944Z" stroke="white"/>
<path d="M68.131 16.7474C68.251 16.6797 68.4565 16.5917 68.5877 16.552C68.7189 16.5123 69.0225 16.4787 69.2625 16.4767C69.5141 16.4747 69.8081 16.5052 69.958 16.5484C70.1008 16.5902 70.3342 16.6965 70.477 16.7846C70.6199 16.8726 70.8449 17.0731 70.977 17.2298C71.1169 17.3957 71.2759 17.6532 71.3573 17.8455C71.4341 18.0277 71.5267 18.302 71.5633 18.4562C71.6002 18.6104 71.6301 18.7875 71.6297 18.8506C71.6293 18.9172 71.599 18.9737 71.5566 18.9864C71.5168 18.9981 71.2971 19.0226 70.6535 19.0739L70.5617 18.7269C70.5115 18.5361 70.4135 18.2827 70.3437 18.1636C70.2744 18.0445 70.1382 17.8781 70.041 17.7931C69.9439 17.7081 69.7711 17.6018 69.6569 17.557C69.5124 17.5 69.3551 17.4822 69.1379 17.4985C68.8842 17.5173 68.7771 17.554 68.5603 17.6959C68.4009 17.8008 68.2123 17.9834 68.0903 18.1509C67.9777 18.305 67.8146 18.6139 67.7269 18.8378C67.6393 19.0617 67.5388 19.394 67.5031 19.5757C67.4678 19.7579 67.4193 20.1013 67.3956 20.339C67.3719 20.5771 67.3524 20.9089 67.3532 21.3822L67.4649 21.2041C67.526 21.1064 67.6613 20.9283 67.7656 20.8092C67.8694 20.6896 68.0757 20.5145 68.2244 20.4194C68.373 20.3247 68.5969 20.2102 68.7227 20.1655C68.8618 20.1156 69.1051 20.0835 69.3455 20.084C69.5693 20.084 69.8475 20.1186 69.9891 20.1639C70.1261 20.2077 70.3504 20.3166 70.4874 20.4056C70.6244 20.4947 70.8686 20.7278 71.0301 20.9237C71.2522 21.1939 71.3652 21.3852 71.496 21.7129C71.6023 21.9796 71.6953 22.3114 71.7377 22.578C71.7883 22.896 71.8004 23.152 71.7825 23.5448C71.7692 23.839 71.7281 24.2166 71.6911 24.3845C71.6546 24.5524 71.5462 24.8847 71.4511 25.1223C71.3237 25.4414 71.2016 25.65 70.9865 25.9172C70.7839 26.1696 70.6032 26.336 70.394 26.4642C70.2283 26.566 69.9762 26.683 69.8334 26.7248C69.6906 26.766 69.4057 26.8006 69.2002 26.8016C68.9552 26.8021 68.7123 26.7665 68.4943 26.6978C68.3116 26.6403 68.0317 26.5085 67.8727 26.4047C67.6987 26.2917 67.4749 26.0831 67.3121 25.8821C67.1631 25.6984 66.9704 25.4007 66.8844 25.2205C66.7981 25.0404 66.6735 24.6873 66.6075 24.4354C66.5411 24.1835 66.4563 23.7255 66.419 23.4176C66.3729 23.0426 66.3509 22.5307 66.3513 21.8656C66.3517 21.2758 66.3774 20.6362 66.4152 20.2881C66.4497 19.9665 66.5261 19.4968 66.5846 19.2449C66.6428 18.993 66.7624 18.6038 66.8496 18.3799C66.9368 18.1559 67.0925 17.8354 67.195 17.6674C67.298 17.4995 67.5015 17.2517 67.6472 17.1163C67.7934 16.9815 68.011 16.8156 68.131 16.7474Z" stroke="white"/>
<path d="M73.394 19.2195C73.6112 17.8058 73.7889 16.6441 73.7889 16.637C73.7885 16.6299 74.7136 16.6243 77.8993 16.6243V17.8455L74.5982 17.845L74.3843 19.1559C74.2668 19.8764 74.1734 20.4723 74.1767 20.4794C74.18 20.4866 74.3324 20.4021 74.5151 20.2912C74.6978 20.1807 74.969 20.055 75.1172 20.0118C75.2655 19.9685 75.5457 19.9334 75.7401 19.9334C75.9344 19.9334 76.2147 19.9685 76.3629 20.0118C76.5111 20.0545 76.7545 20.1629 76.9027 20.252C77.0837 20.3609 77.2847 20.5486 77.5123 20.8219C77.7934 21.1588 77.8806 21.3043 78.0168 21.662C78.1077 21.9002 78.2049 22.232 78.2335 22.3999C78.2622 22.5678 78.2842 22.9454 78.2829 23.2395C78.2817 23.5408 78.2518 23.924 78.2144 24.1173C78.1783 24.3061 78.0911 24.6155 78.0209 24.8043C77.9507 24.9931 77.8133 25.2852 77.7153 25.4531C77.6169 25.621 77.4595 25.8444 77.3653 25.9492C77.2706 26.0541 77.0908 26.2205 76.965 26.3182C76.8392 26.4164 76.5917 26.5563 76.4148 26.6301C76.1727 26.7304 75.9797 26.77 75.6363 26.7889C75.3149 26.8062 75.0749 26.7894 74.8266 26.7324C74.6106 26.6825 74.3528 26.5772 74.1622 26.4607C73.9907 26.3563 73.7665 26.1803 73.6639 26.0693C73.5613 25.9589 73.4094 25.7635 73.3267 25.6353C73.2441 25.507 73.1386 25.3106 73.0926 25.1987C73.046 25.0867 72.968 24.8348 72.9186 24.6389C72.8692 24.443 72.8343 24.214 72.8542 23.9774L73.8665 23.8756L73.9313 24.1937C73.967 24.3687 74.0426 24.6262 74.0999 24.7661C74.1568 24.9061 74.288 25.1239 74.3906 25.2496C74.4931 25.3752 74.685 25.5416 74.8162 25.6185C75.0279 25.7426 75.1023 25.7584 75.4702 25.7579C75.826 25.7574 75.9182 25.7386 76.1138 25.6282C76.2396 25.5574 76.4227 25.42 76.5215 25.3233C76.6203 25.2267 76.7648 25.0333 76.8433 24.8933C76.9214 24.7534 77.0244 24.5132 77.0717 24.359C77.119 24.2048 77.1755 23.9077 77.1967 23.6975C77.2224 23.4477 77.2208 23.1749 77.1925 22.9088C77.1635 22.635 77.1033 22.3846 77.0098 22.1455C76.9185 21.9119 76.801 21.7124 76.6685 21.5659C76.5577 21.4432 76.3733 21.2896 76.2591 21.2249C76.1449 21.1598 75.9111 21.0799 75.7401 21.0463C75.505 21.0005 75.3622 20.9995 75.1587 21.0427C75.0105 21.0743 74.7767 21.1679 74.6397 21.2509C74.5002 21.3354 74.2851 21.5318 73.911 21.9928L73.4546 21.9165C73.2038 21.8747 72.9983 21.8289 72.9983 21.8147C72.9987 21.8005 73.1764 20.6331 73.394 19.2195Z" stroke="white"/>
<path d="M62.4112 23.5957V22.3236H65.5254V23.5957H62.4112Z" stroke="white"/>
<path d="M47.3383 21.3058V17.6929L48.6774 17.6934C49.4141 17.6934 50.1332 17.7163 50.2761 17.7443C50.4189 17.7718 50.6103 17.8405 50.7017 17.8964C50.793 17.9524 50.9367 18.0842 51.021 18.189C51.1053 18.2939 51.2207 18.5055 51.278 18.6597C51.3548 18.8653 51.3872 19.0541 51.4009 19.3721C51.4142 19.6861 51.4001 19.8815 51.3494 20.0846C51.3112 20.2387 51.2095 20.4789 51.1236 20.6189C51.0202 20.7873 50.8914 20.9206 50.7411 21.0137C50.6166 21.0911 50.384 21.1883 50.2242 21.2295C50.0049 21.2855 49.615 21.3043 47.3383 21.3058Z" stroke="white"/>
<path d="M68.3801 21.3908C68.4544 21.344 68.6131 21.2717 68.7331 21.2295C68.8784 21.179 69.0549 21.1617 69.2625 21.1776C69.4921 21.1954 69.6395 21.2407 69.823 21.3491C69.9601 21.4305 70.1544 21.5969 70.2545 21.7195C70.3549 21.8417 70.4899 22.0793 70.5547 22.2472C70.6194 22.4152 70.6917 22.6783 70.7154 22.8324C70.739 22.9866 70.7577 23.2726 70.7573 23.4685C70.7565 23.6644 70.7274 23.9733 70.6921 24.1555C70.6568 24.3377 70.5684 24.6216 70.4953 24.7865C70.4226 24.9519 70.2781 25.1809 70.1743 25.2954C70.0705 25.4104 69.8928 25.561 69.7798 25.6302C69.6067 25.736 69.5141 25.7564 69.2002 25.7574C68.863 25.7584 68.7991 25.7421 68.5462 25.593C68.3868 25.4989 68.1808 25.3218 68.0687 25.1829C67.9603 25.048 67.8212 24.8135 67.7602 24.6613C67.6991 24.5092 67.6194 24.2471 67.5837 24.0792C67.5476 23.9112 67.5181 23.5789 67.5181 23.3413C67.5177 23.0909 67.5459 22.7907 67.5849 22.6289C67.6219 22.4747 67.6954 22.2574 67.7481 22.1455C67.8009 22.0335 67.9346 21.8371 68.0446 21.7089C68.1551 21.5806 68.3058 21.4376 68.3801 21.3908Z" stroke="white"/>
<defs>
<linearGradient id="paint0_linear_70_36" x1="55" y1="1.00001" x2="55" y2="41" gradientUnits="userSpaceOnUse">
<stop stop-color="#FF0000" stop-opacity="0.5"/>
<stop offset="0.153846" stop-color="#FF0000" stop-opacity="0.5"/>
<stop offset="0.197115" stop-color="#F00A0A" stop-opacity="0.5"/>
<stop offset="0.418269" stop-color="#FF0000" stop-opacity="0.8"/>
<stop offset="0.802885" stop-color="#3D0303" stop-opacity="0.872671"/>
<stop offset="1" stop-opacity="0.85"/>
</linearGradient>
<linearGradient id="paint1_linear_70_36" x1="55" y1="1.00001" x2="55" y2="41" gradientUnits="userSpaceOnUse">
<stop stop-color="#FF0000" stop-opacity="0.5"/>
<stop offset="0.153846" stop-color="#FF0000" stop-opacity="0.5"/>
<stop offset="0.197115" stop-color="#F00A0A" stop-opacity="0.5"/>
<stop offset="0.418269" stop-color="#FF0000" stop-opacity="0.8"/>
<stop offset="0.802885" stop-color="#3D0303" stop-opacity="0.872671"/>
<stop offset="1" stop-opacity="0.85"/>
</linearGradient>
<linearGradient id="paint2_linear_70_36" x1="55" y1="1.00001" x2="55" y2="41" gradientUnits="userSpaceOnUse">
<stop stop-color="#FF0000" stop-opacity="0.5"/>
<stop offset="0.153846" stop-color="#FF0000" stop-opacity="0.5"/>
<stop offset="0.197115" stop-color="#F00A0A" stop-opacity="0.5"/>
<stop offset="0.418269" stop-color="#FF0000" stop-opacity="0.8"/>
<stop offset="0.802885" stop-color="#3D0303" stop-opacity="0.872671"/>
<stop offset="1" stop-opacity="0.85"/>
</linearGradient>
<linearGradient id="paint3_linear_70_36" x1="55" y1="1.00001" x2="55" y2="41" gradientUnits="userSpaceOnUse">
<stop stop-color="#FF0000" stop-opacity="0.5"/>
<stop offset="0.153846" stop-color="#FF0000" stop-opacity="0.5"/>
<stop offset="0.197115" stop-color="#F00A0A" stop-opacity="0.5"/>
<stop offset="0.418269" stop-color="#FF0000" stop-opacity="0.8"/>
<stop offset="0.802885" stop-color="#3D0303" stop-opacity="0.872671"/>
<stop offset="1" stop-opacity="0.85"/>
</linearGradient>
<linearGradient id="paint4_linear_70_36" x1="55" y1="1.00001" x2="55" y2="41" gradientUnits="userSpaceOnUse">
<stop stop-color="#FF0000" stop-opacity="0.5"/>
<stop offset="0.153846" stop-color="#FF0000" stop-opacity="0.5"/>
<stop offset="0.197115" stop-color="#F00A0A" stop-opacity="0.5"/>
<stop offset="0.418269" stop-color="#FF0000" stop-opacity="0.8"/>
<stop offset="0.802885" stop-color="#3D0303" stop-opacity="0.872671"/>
<stop offset="1" stop-opacity="0.85"/>
</linearGradient>
<linearGradient id="paint5_linear_70_36" x1="55" y1="1.00001" x2="55" y2="41" gradientUnits="userSpaceOnUse">
<stop stop-color="#FF0000" stop-opacity="0.5"/>
<stop offset="0.153846" stop-color="#FF0000" stop-opacity="0.5"/>
<stop offset="0.197115" stop-color="#F00A0A" stop-opacity="0.5"/>
<stop offset="0.418269" stop-color="#FF0000" stop-opacity="0.8"/>
<stop offset="0.802885" stop-color="#3D0303" stop-opacity="0.872671"/>
<stop offset="1" stop-opacity="0.85"/>
</linearGradient>
<linearGradient id="paint6_linear_70_36" x1="55" y1="1.00001" x2="55" y2="41" gradientUnits="userSpaceOnUse">
<stop stop-color="#FF0000" stop-opacity="0.5"/>
<stop offset="0.153846" stop-color="#FF0000" stop-opacity="0.5"/>
<stop offset="0.197115" stop-color="#F00A0A" stop-opacity="0.5"/>
<stop offset="0.418269" stop-color="#FF0000" stop-opacity="0.8"/>
<stop offset="0.802885" stop-color="#3D0303" stop-opacity="0.872671"/>
<stop offset="1" stop-opacity="0.85"/>
</linearGradient>
<linearGradient id="paint7_linear_70_36" x1="55" y1="1.00001" x2="55" y2="41" gradientUnits="userSpaceOnUse">
<stop stop-color="#FF0000" stop-opacity="0.5"/>
<stop offset="0.153846" stop-color="#FF0000" stop-opacity="0.5"/>
<stop offset="0.197115" stop-color="#F00A0A" stop-opacity="0.5"/>
<stop offset="0.418269" stop-color="#FF0000" stop-opacity="0.8"/>
<stop offset="0.802885" stop-color="#3D0303" stop-opacity="0.872671"/>
<stop offset="1" stop-opacity="0.85"/>
</linearGradient>
<linearGradient id="paint8_linear_70_36" x1="55" y1="1.00001" x2="55" y2="41" gradientUnits="userSpaceOnUse">
<stop stop-color="#FF0000" stop-opacity="0.5"/>
<stop offset="0.153846" stop-color="#FF0000" stop-opacity="0.5"/>
<stop offset="0.197115" stop-color="#F00A0A" stop-opacity="0.5"/>
<stop offset="0.418269" stop-color="#FF0000" stop-opacity="0.8"/>
<stop offset="0.802885" stop-color="#3D0303" stop-opacity="0.872671"/>
<stop offset="1" stop-opacity="0.85"/>
</linearGradient>
</defs>
</svg>
